<svg width="64" height="64" viewBox="0 0 64 64" xmlns="http://www.w3.org/2000/svg">
  <!-- 背景圆环 -->
  <circle cx="32" cy="32" r="30" fill="#1e3d29" stroke="#2d5a3d" stroke-width="2"/>
  
  <!-- 治疗术主图案 -->
  <!-- 中心十字架 -->
  <rect x="28" y="20" width="8" height="24" fill="#90ee90" rx="2"/>
  <rect x="20" y="28" width="24" height="8" fill="#90ee90" rx="2"/>
  
  <!-- 十字架高光 -->
  <rect x="29" y="21" width="6" height="22" fill="#98fb98" rx="1"/>
  <rect x="21" y="29" width="22" height="6" fill="#98fb98" rx="1"/>
  
  <!-- 十字架核心光点 -->
  <circle cx="32" cy="32" r="4" fill="#ffffff" opacity="0.9"/>
  <circle cx="32" cy="32" r="2" fill="#adff2f"/>
  
  <!-- 治疗光环 -->
  <g opacity="0.6">
    <circle cx="32" cy="32" r="18" fill="none" stroke="#90ee90" stroke-width="2" stroke-dasharray="4,2"/>
    <circle cx="32" cy="32" r="22" fill="none" stroke="#98fb98" stroke-width="1" stroke-dasharray="2,2"/>
    <circle cx="32" cy="32" r="26" fill="none" stroke="#adff2f" stroke-width="1" stroke-dasharray="1,3"/>
  </g>
  
  <!-- 治疗粒子 -->
  <g opacity="0.8">
    <circle cx="20" cy="20" r="2" fill="#90ee90"/>
    <circle cx="44" cy="20" r="1.5" fill="#98fb98"/>
    <circle cx="20" cy="44" r="1.5" fill="#98fb98"/>
    <circle cx="44" cy="44" r="2" fill="#90ee90"/>
    <circle cx="16" cy="32" r="1" fill="#adff2f"/>
    <circle cx="48" cy="32" r="1" fill="#adff2f"/>
    <circle cx="32" cy="16" r="1" fill="#adff2f"/>
    <circle cx="32" cy="48" r="1" fill="#adff2f"/>
  </g>
  
  <!-- 闪烁效果 -->
  <g opacity="0.9">
    <line x1="26" y1="26" x2="28" y2="28" stroke="#ffffff" stroke-width="2" stroke-linecap="round"/>
    <line x1="36" y1="26" x2="38" y2="28" stroke="#ffffff" stroke-width="2" stroke-linecap="round"/>
    <line x1="26" y1="36" x2="28" y2="38" stroke="#ffffff" stroke-width="2" stroke-linecap="round"/>
    <line x1="36" y1="36" x2="38" y2="38" stroke="#ffffff" stroke-width="2" stroke-linecap="round"/>
  </g>
</svg>

