<svg width="64" height="64" viewBox="0 0 64 64" xmlns="http://www.w3.org/2000/svg">
  <!-- 背景圆环 -->
  <circle cx="32" cy="32" r="30" fill="#1a1a2e" stroke="#16213e" stroke-width="2"/>
  
  <!-- 剑气斩主图案 -->
  <!-- 剑身 -->
  <rect x="30" y="8" width="4" height="28" fill="#c0c0c0" rx="1"/>
  <rect x="29" y="8" width="6" height="2" fill="#e6e6e6"/>
  
  <!-- 护手 -->
  <rect x="26" y="30" width="12" height="3" fill="#8b4513" rx="1"/>
  
  <!-- 剑柄 -->
  <rect x="30.5" y="33" width="3" height="8" fill="#654321"/>
  
  <!-- 剑首 -->
  <circle cx="32" cy="42" r="2" fill="#8b4513"/>
  
  <!-- 剑气效果 -->
  <g opacity="0.8">
    <!-- 剑气波纹1 -->
    <path d="M 20 20 Q 32 10 44 20 Q 32 30 20 20" fill="none" stroke="#87ceeb" stroke-width="2" opacity="0.7"/>
    <!-- 剑气波纹2 -->
    <path d="M 18 25 Q 32 15 46 25 Q 32 35 18 25" fill="none" stroke="#4169e1" stroke-width="1.5" opacity="0.6"/>
    <!-- 剑气波纹3 -->
    <path d="M 16 30 Q 32 20 48 30 Q 32 40 16 30" fill="none" stroke="#00bfff" stroke-width="1" opacity="0.5"/>
  </g>
  
  <!-- 闪光效果 -->
  <g opacity="0.9">
    <line x1="25" y1="15" x2="27" y2="17" stroke="#ffffff" stroke-width="2" stroke-linecap="round"/>
    <line x1="37" y1="15" x2="39" y2="17" stroke="#ffffff" stroke-width="2" stroke-linecap="round"/>
    <line x1="32" y1="12" x2="32" y2="14" stroke="#ffffff" stroke-width="2" stroke-linecap="round"/>
  </g>
</svg>

