<svg width="64" height="64" viewBox="0 0 64 64" xmlns="http://www.w3.org/2000/svg">
  <!-- 背景圆环 -->
  <circle cx="32" cy="32" r="30" fill="#2d1b69" stroke="#1e1040" stroke-width="2"/>
  
  <!-- 连击主图案 -->
  <!-- 拳头1 -->
  <g transform="translate(18, 20)">
    <ellipse cx="6" cy="8" rx="5" ry="7" fill="#fdbcb4"/>
    <rect x="4" y="3" width="4" height="5" fill="#fdbcb4" rx="2"/>
    <!-- 指节 -->
    <circle cx="4" cy="6" r="1" fill="#f4a261"/>
    <circle cx="6" cy="5" r="1" fill="#f4a261"/>
    <circle cx="8" cy="6" r="1" fill="#f4a261"/>
  </g>
  
  <!-- 拳头2 -->
  <g transform="translate(38, 28) rotate(45)">
    <ellipse cx="6" cy="8" rx="5" ry="7" fill="#fdbcb4"/>
    <rect x="4" y="3" width="4" height="5" fill="#fdbcb4" rx="2"/>
    <!-- 指节 -->
    <circle cx="4" cy="6" r="1" fill="#f4a261"/>
    <circle cx="6" cy="5" r="1" fill="#f4a261"/>
    <circle cx="8" cy="6" r="1" fill="#f4a261"/>
  </g>
  
  <!-- 连击轨迹线 -->
  <g opacity="0.7">
    <path d="M 23 28 Q 32 22 41 35" fill="none" stroke="#ff6b6b" stroke-width="3" stroke-dasharray="2,2"/>
    <path d="M 25 30 Q 34 24 43 37" fill="none" stroke="#ff8e53" stroke-width="2" stroke-dasharray="1,1"/>
  </g>
  
  <!-- 冲击波效果 -->
  <g opacity="0.6">
    <circle cx="23" cy="28" r="8" fill="none" stroke="#ff6b6b" stroke-width="2" opacity="0.4"/>
    <circle cx="41" cy="35" r="6" fill="none" stroke="#ff8e53" stroke-width="2" opacity="0.4"/>
  </g>
  
  <!-- 速度线 -->
  <g opacity="0.8">
    <line x1="10" y1="25" x2="15" y2="27" stroke="#ffffff" stroke-width="1" stroke-linecap="round"/>
    <line x1="12" y1="28" x2="17" y2="30" stroke="#ffffff" stroke-width="1" stroke-linecap="round"/>
    <line x1="48" y1="40" x2="53" y2="42" stroke="#ffffff" stroke-width="1" stroke-linecap="round"/>
    <line x1="50" y1="43" x2="55" y2="45" stroke="#ffffff" stroke-width="1" stroke-linecap="round"/>
  </g>
</svg>

