<svg width="64" height="64" viewBox="0 0 64 64" xmlns="http://www.w3.org/2000/svg">
  <!-- 背景圆环 -->
  <circle cx="32" cy="32" r="30" fill="#2e1065" stroke="#4a148c" stroke-width="2"/>
  
  <!-- 仙风云体术主图案 -->
  <!-- 中心人形轮廓 -->
  <g opacity="0.8">
    <!-- 头部 -->
    <circle cx="32" cy="20" r="4" fill="#e1bee7" stroke="#ba68c8" stroke-width="1"/>
    <!-- 身体 -->
    <rect x="29" y="24" width="6" height="12" fill="#e1bee7" rx="2"/>
    <!-- 腿部 -->
    <rect x="30" y="36" width="2" height="8" fill="#e1bee7" rx="1"/>
    <rect x="32" y="36" width="2" height="8" fill="#e1bee7" rx="1"/>
    <!-- 手臂 -->
    <rect x="25" y="26" width="4" height="2" fill="#e1bee7" rx="1"/>
    <rect x="35" y="26" width="4" height="2" fill="#e1bee7" rx="1"/>
  </g>
  
  <!-- 仙风环绕效果 -->
  <g opacity="0.7">
    <!-- 风旋1 -->
    <path d="M 12 25 Q 20 15 32 20 Q 44 15 52 25 Q 44 35 32 30 Q 20 35 12 25" 
          fill="none" stroke="#9c27b0" stroke-width="2"/>
    <!-- 风旋2 -->
    <path d="M 16 30 Q 24 20 32 25 Q 40 20 48 30 Q 40 40 32 35 Q 24 40 16 30" 
          fill="none" stroke="#ab47bc" stroke-width="1.5"/>
    <!-- 风旋3 -->
    <path d="M 20 35 Q 26 28 32 32 Q 38 28 44 35 Q 38 42 32 38 Q 26 42 20 35" 
          fill="none" stroke="#ba68c8" stroke-width="1"/>
  </g>
  
  <!-- 云气效果 -->
  <g opacity="0.6">
    <!-- 上方云气 -->
    <ellipse cx="25" cy="12" rx="8" ry="4" fill="#e1bee7"/>
    <ellipse cx="39" cy="14" rx="6" ry="3" fill="#ce93d8"/>
    <!-- 下方云气 -->
    <ellipse cx="22" cy="52" rx="6" ry="3" fill="#ce93d8"/>
    <ellipse cx="42" cy="50" rx="8" ry="4" fill="#e1bee7"/>
  </g>
  
  <!-- 速度轨迹 -->
  <g opacity="0.8">
    <path d="M 8 20 Q 32 10 56 20" fill="none" stroke="#ffffff" stroke-width="2" stroke-dasharray="4,2"/>
    <path d="M 8 44 Q 32 54 56 44" fill="none" stroke="#ffffff" stroke-width="2" stroke-dasharray="4,2"/>
  </g>
  
  <!-- 仙气粒子 -->
  <g opacity="0.9">
    <circle cx="15" cy="18" r="1.5" fill="#f8bbd9"/>
    <circle cx="49" cy="22" r="1" fill="#f48fb1"/>
    <circle cx="18" cy="46" r="1" fill="#f48fb1"/>
    <circle cx="46" cy="42" r="1.5" fill="#f8bbd9"/>
    <circle cx="32" cy="8" r="1" fill="#ffffff"/>
    <circle cx="32" cy="56" r="1" fill="#ffffff"/>
  </g>
  
  <!-- 闪耀效果 -->
  <g opacity="1">
    <line x1="28" y1="16" x2="30" y2="18" stroke="#ffffff" stroke-width="2" stroke-linecap="round"/>
    <line x1="34" y1="16" x2="36" y2="18" stroke="#ffffff" stroke-width="2" stroke-linecap="round"/>
    <line x1="32" y1="14" x2="32" y2="16" stroke="#ffffff" stroke-width="2" stroke-linecap="round"/>
  </g>
  
  <!-- 动感线条 -->
  <g opacity="0.7">
    <line x1="10" y1="32" x2="16" y2="32" stroke="#9c27b0" stroke-width="2" stroke-linecap="round"/>
    <line x1="48" y1="32" x2="54" y2="32" stroke="#9c27b0" stroke-width="2" stroke-linecap="round"/>
  </g>
</svg>

